<svg width="116" height="27" viewBox="0 0 116 27" fill="none" xmlns="http://www.w3.org/2000/svg">
<path d="M0.981534 27V0.818181H7.30966V11.3267H17.6264V0.818181H23.9418V27H17.6264V16.4787H7.30966V27H0.981534ZM33.5746 27H26.7734L35.6072 0.818181H44.032L52.8658 27H46.0646L39.9155 7.41477H39.7109L33.5746 27ZM32.6669 16.696H46.8828V21.5028H32.6669V16.696ZM55.6847 27V0.818181H62.0128V11.8892H62.358L71.0128 0.818181H78.4659L69.1847 12.5028L78.6321 27H71.0639L64.544 16.7088L62.0128 19.9048V27H55.6847ZM86.6254 27H79.8242L88.658 0.818181H97.0827L105.917 27H99.1154L92.9663 7.41477H92.7617L86.6254 27ZM85.7177 16.696H99.9336V21.5028H85.7177V16.696ZM115.064 0.818181V27H108.735V0.818181H115.064Z" fill="white"/>
</svg>
